Coordinates
version=1
nRows=19
nColumns=24
inDegrees=yes

Units are S.I. units (second, meters, Newtons, ...)
Angles are in degrees.

endheader
time	pelvis_tilt	pelvis_list	pelvis_rotation	pelvis_tx	pelvis_ty	pelvis_tz	hip_flexion_r	hip_adduction_r	hip_rotation_r	knee_angle_r	ankle_angle_r	subtalar_angle_r	mtp_angle_r	hip_flexion_l	hip_adduction_l	hip_rotation_l	knee_angle_l	ankle_angle_l	subtalar_angle_l	mtp_angle_l	lumbar_extension	lumbar_bending	lumbar_rotation
      0.41700000	     -6.77146893	      1.27769432	      3.71768044	     -0.72118286	      0.89090508	      0.30248314	     35.83539351	     -1.42858762	     -7.05491350	    -20.57211280	      0.33002243	      0.38782819	      2.83450620	     -8.94066931	      2.42332118	      1.34342633	     -6.61683690	     15.26068831	     -0.42659832	      5.91278194	     -0.51210409	     -3.74752680	     -9.56474776
      0.42116667	     -6.86839578	      1.27382030	      3.85878024	     -0.71540473	      0.88947725	      0.30271046	     35.87562955	     -1.39042803	     -6.85890132	    -20.35959787	      0.29632859	      0.19472284	      2.79872555	     -8.97657374	      2.33809807	      1.37846112	     -7.16422058	     15.57094996	     -0.16638432	      5.96210197	     -0.36099182	     -3.74210138	     -9.65495181
      0.42533333	     -6.95548415	      1.25276942	      3.98795124	     -0.70958877	      0.88808500	      0.30298603	     35.90449673	     -1.32649313	     -6.67206472	    -20.24636281	      0.28362396	     -0.02153357	      2.76791510	     -8.98393515	      2.22573566	      1.31688489	     -7.79655616	     15.90311084	      0.21974802	      6.04719309	     -0.22223205	     -3.72401303	     -9.71731397
      0.42950000	     -7.03206835	      1.21809376	      4.10194234	     -0.70374681	      0.88673528	      0.30328756	     35.92722429	     -1.24081971	     -6.49134786	    -20.23729225	      0.27017109	     -0.27044873	      2.74474814	     -8.98613514	      2.09688631	      1.22446242	     -8.46463578	     16.21605036	      0.63673232	      6.19905724	     -0.10658592	     -3.66380150	     -9.75327620
      0.43366667	     -7.15697954	      1.18055550	      4.22083350	     -0.69788882	      0.88536835	      0.30361362	     35.99424698	     -1.15316042	     -6.31854753	    -20.29806673	      0.18025498	     -0.58065801	      2.74082886	     -8.92196304	      1.96943243	      1.20665516	     -9.16244878	     16.45978018	      0.92327797	      6.32936723	      0.09375317	     -3.63083370	     -9.76916887
      0.43783333	     -7.27235579	      1.12473529	      4.33050242	     -0.69200100	      0.88405571	      0.30396419	     36.05538384	     -1.04168930	     -6.16155488	    -20.45448213	      0.09042246	     -0.92672439	      2.75102807	     -8.84004623	      1.81807370	      1.14875959	     -9.91789046	     16.70258147	      1.26498572	      6.47947999	      0.27675729	     -3.56021004	     -9.76870471
      0.44200000	     -7.35484603	      1.04201004	      4.42071080	     -0.68606383	      0.88282740	      0.30437616	     36.08154625	     -0.88720615	     -6.01080930	    -20.69303942	      0.03677303	     -1.30836461	      2.79748875	     -8.76185679	      1.62459965	      0.98574250	    -10.74103334	     16.96049086	      1.76896652	      6.78477509	      0.42051651	     -3.44856558	     -9.75732896
      0.44616667	     -7.50261117	      0.98384846	      4.52010952	     -0.68014366	      0.88156982	      0.30476797	     36.19470632	     -0.76992864	     -5.88102344	    -21.03823188	     -0.05340493	     -1.68062663	      2.82175291	     -8.61663252	      1.48335800	      1.04097131	    -11.54735785	     17.09800937	      1.89437863	      6.92131003	      0.64186305	     -3.37286204	     -9.70911402
      0.45033333	     -7.58597282	      0.87191537	      4.58664825	     -0.67415018	      0.88045415	      0.30527127	     36.21940548	     -0.56713310	     -5.74426832	    -21.40378153	     -0.14548613	     -2.15836893	      2.92303105	     -8.47062039	      1.24557191	      0.77663939	    -12.50481249	     17.25597959	      2.47638119	      7.36209046	      0.80783542	     -3.23463288	     -9.65886981
      0.45450000	     -7.73932642	      0.80171180	      4.66075687	     -0.66819056	      0.87929286	      0.30573085	     36.35788350	     -0.42442930	     -5.63183551	    -21.91169323	     -0.20244298	     -2.56184327	      2.96391165	     -8.27185850	      1.09399319	      0.82765647	    -13.40987280	     17.30090455	      2.54778404	      7.53658148	      1.04085868	     -3.14314176	     -9.58391795
      0.45866667	     -7.85605454	      0.69486947	      4.70429186	     -0.66217293	      0.87824353	      0.30628110	     36.44906050	     -0.22185910	     -5.52599881	    -22.44696211	     -0.30659162	     -3.04503690	      3.05538621	     -8.05259964	      0.87395772	      0.62516619	    -14.43572934	     17.30624688	      2.93443707	      7.90827207	      1.25594969	     -3.02680551	     -9.48017013
      0.46283333	     -7.91317999	      0.54711014	      4.73451958	     -0.65610141	      0.87734609	      0.30688129	     36.46683776	      0.03790395	     -5.41625659	    -23.01458334	     -0.26750110	     -3.53341349	      3.28534400	     -7.87409458	      0.59604492	      0.39881996	    -15.50797068	     17.32759399	      3.41575670	      8.83004818	      1.39849100	     -2.80729111	     -9.35326064
      0.46700000	     -8.05597527	      0.47466108	      4.76999352	     -0.65010626	      0.87640220	      0.30743762	     36.61944537	      0.19956760	     -5.32673849	    -23.70550015	     -0.25205812	     -3.89554703	      3.36757875	     -7.59913773	      0.44540792	      0.42345614	    -16.57392997	     17.15572936	      3.37626096	      9.18777919	      1.63185222	     -2.73407724	     -9.23617570
      0.47116667	     -8.12523230	      0.33419211	      4.78512259	     -0.64402956	      0.87564015	      0.30806727	     36.66406999	      0.45132309	     -5.23815550	    -24.36941420	     -0.14888165	     -4.32405920	      4.43331105	     -7.35886894	      0.19032637	      0.29128346	    -17.72038874	     16.92381639	      3.51477837	     14.26513374	      1.78628234	     -2.52919277	     -9.16029343
      0.47533333	     -8.21209657	      0.23137968	      4.78437839	     -0.63797907	      0.87491187	      0.30869544	     36.75934070	      0.66534341	     -5.14431715	    -25.13082479	      0.06186819	     -4.66928038	      4.43544821	     -7.09010840	      0.00300504	      0.27623877	    -18.88896445	     16.66453945	      3.52512109	     14.30871358	      1.95177452	     -2.37736653	     -8.96899341
      0.47950000	     -8.25214879	      0.09100341	      4.76406111	     -0.63189845	      0.87432607	      0.30938839	     36.78972343	      0.92925478	     -5.07310841	    -25.87651989	      0.23506673	     -5.02185057	      4.43973828	     -6.80695086	     -0.25553086	      0.07870773	    -20.17548544	     16.38416802	      3.76118010	     14.57547510	      2.07350514	     -2.18481982	     -8.72959510
      0.48366667	     -8.31641742	     -0.02877835	      4.74061304	     -0.62582655	      0.87379546	      0.31005512	     36.84930680	      1.16716399	     -4.98742715	    -26.65442846	      0.53193125	     -5.29575676	      4.44916869	     -6.49236595	     -0.45915337	      0.04627878	    -21.45831033	     15.96485109	      3.68832978	     14.69053281	      2.21851505	     -2.00107233	     -8.59311248
      0.48783333	     -8.35501441	     -0.15813462	      4.70206421	     -0.61975914	      0.87336705	      0.31075340	     36.87539221	      1.41971191	     -4.91411480	    -27.43195371	      0.84865265	     -5.54133616	      4.45826050	     -6.15731239	     -0.68496929	     -0.06270265	    -22.82671128	     15.50511051	      3.69067368	     14.86158653	      2.33303645	     -1.80455787	     -8.39792864
      0.49200000	     -8.36877274	     -0.29845786	      4.64988611	     -0.61369059	      0.87305401	      0.31147246	     36.86085973	      1.68808581	     -4.84801939	    -28.18890423	      1.19094692	     -5.74490442	      4.46547259	     -5.80772980	     -0.92771616	     -0.20427244	    -24.25888868	     14.97508371	      3.69581881	     15.09884260	      2.41128629	     -1.59331263	     -8.18126892
